<svg version="1.1" id="Moai--Streamline-Noto-Emoji" xmlns="http://www.w3.org/2000/svg" xmlns:xlink="http://www.w3.org/1999/xlink" x="0" y="0" viewBox="0 0 32 32" xml:space="preserve" enable-background="new 0 0 128 128" height="32" width="32">
  <desc>
    Moai Streamline Emoji: https://streamlinehq.com
  </desc>
  <path d="m18.141875 26.14145 -1.76185 5.009675s3.703275 -0.04945 4.780675 -0.15875 3.073475 -0.80935 3.396175 -1.88675 -0.27065 -5.3376 -0.27065 -5.3376 1.618725 -0.432 2.373425 -1.293425 0.5387 -2.2641 0.48405 -3.234825c-0.05465 -0.9707 -0.093675 -9.012225 -0.216 -9.975125 -0.184775 -1.43655 -0.70005 -2.750775 -1.564075 -3.718875s-1.865925 -1.42615 -2.225075 -1.6057c-0.458025 -0.231625 -1.9232 -0.593375 -1.9232 -0.593375l-3.073475 22.79475Z" fill="#615555" stroke-width="0.25"></path>
  <path d="M8.203175 6.06365c-0.04165 0.085875 -0.89785 0.770325 -0.91865 1.472975 -0.020825 0.70525 0.1067 1.2726 0.192575 1.75145 0.080675 0.452825 0.249825 1.272575 0.249825 1.272575l13.634175 -0.075475s0.528275 -0.48925 0.4476 -1.366275c-0.1275 -1.4105 -0.726075 -2.115775 -1.259575 -2.755975 -0.5335 -0.6402 -7.411725 -1.686375 -7.411725 -1.686375S8.224 6.022 8.203175 6.06365Z" fill="#4A4240" stroke-width="0.25"></path>
  <path d="M21.759275 1.59005s0.507475 0.163975 1.1867 1.0488c0.567325 0.736475 0.37735 1.7176 0.05725 2.693525 -0.25765 0.788525 -0.8458 1.931 -1.64995 1.756625 -0.6532 -0.140525 -3.2244 -0.949875 -5.29075 -1.267375 -2.646675 -0.405975 -4.3747 -0.3227 -6.15995 0.27325 -1.6968 0.564725 -2.61545 1.44435 -2.61545 1.44435s-0.072875 -1.01495 0.156125 -1.582275 2.6649 -1.75665 2.6649 -1.75665l11.651125 -2.61025Z" fill="#91837F" stroke-width="0.25"></path>
  <path d="M19.968775 5.189225c0.9603 0.0963 1.64475 -0.59595 1.95705 -1.701975s0.234225 -1.5953 0.091075 -1.764475c-0.140525 -0.16915 -3.294675 -1.694175 -7.292025 -1.35325s-5.0201 1.577075 -5.61345 2.1548c-1.02015 0.99155 -1.733225 2.737775 -1.681175 3.487275 0 0.015625 0.59335 -1.137275 4.43195 -1.587475 4.364275 -0.5101 6.974525 0.6532 8.1066 0.7651Z" fill="#BFB3B3" stroke-width="0.25"></path>
  <path d="M7.8076 11.1436s-0.197775 -0.7651 -0.028625 -0.991525c0.16915 -0.2264 0.822375 -0.79375 1.8139 -0.991525 0.991525 -0.197775 2.011675 0.05725 2.011675 0.05725l3.713675 -1.2752s0.25505 0.36955 0.452825 0.79375 0.452825 1.33245 0.452825 1.33245 0.26805 -0.387775 1.11645 -0.6428c0.851 -0.25505 2.28235 0.1119 2.28235 0.1119l0.796325 6.823575s-0.197775 1.87115 -0.140525 5.6421c0.05725 3.770925 0.028625 5.498925 -0.140525 6.831375 -0.072875 0.56995 -0.58555 1.95445 -2.805425 2.29535 -2.1184 0.3253 -5.839875 0.707875 -8.616675 0.48145 -2.7794 -0.2264 -3.552325 -1.314225 -3.828175 -1.842525 -0.283675 -0.5465 0.1145 -2.07935 0.1145 -2.07935l1.44435 -1.4079s-0.736475 -5.103375 -0.7651 -5.243925c-0.028625 -0.143125 2.126175 -9.89445 2.126175 -9.89445Z" fill="#948585" stroke-width="0.25"></path>
  <path d="M21.506825 10.479975c-0.351325 -0.4346 -1.86075 -1.324625 -3.1021 -0.851 -1.296025 0.497075 -1.954425 2.134 -1.530225 3.495075 0.28885 0.929075 1.13985 1.8243 1.855525 2.60765 0.767725 0.843175 1.12165 1.485975 1.452175 1.485975s0.661 -2.95635 0.91085 -4.01035 0.6428 -2.443675 0.413775 -2.72735Z" fill="#BFB3B3" stroke-width="0.25"></path>
  <path d="M16.585625 9.7565s-0.2056 0.1041 -0.3097 0.04165c-0.1041 -0.062475 -0.260225 -0.4216 -0.260225 -0.4216S12.97605 13.418125 12.8121 13.665375c-0.166575 0.247225 -0.1067 0.348725 -0.023425 0.452825 0.083275 0.104075 1.686375 -0.231625 2.657075 0.48925 1.01235 0.7547 1.0514 2.225075 0.658425 2.7846 -0.392975 0.556925 -1.5953 0.59595 -2.383825 0.013025 -0.387775 -0.286275 -2.06635 -1.1633 -4.176925 -1.1633 -0.879625 0 -2.433275 0.15095 -2.433275 0.15095l-0.942075 0.864 0.929075 1.301225 3.734475 1.33245 0.551725 -0.884825s3.242625 0.3409 4.33305 0.158725 1.988275 -1.056575 1.7983 -2.706525c-0.174375 -1.5094 -1.21795 -2.173025 -1.725425 -3.341525 -0.4372 -1.00975 0.0078 -2.0195 0.16395 -2.39685 0.127525 -0.301875 0.6324 -0.9629 0.6324 -0.9629Z" fill="#615654" stroke-width="0.25"></path>
  <path d="m11.7503 20.4343 2.170425 0.942075s1.21535 0.288875 1.3819 0.6376c0.1067 0.2212 -0.015625 0.621975 -0.59335 0.455425 -0.333125 -0.0963 -1.881575 -0.5257 -2.3396 -0.6376 -0.562125 -0.137925 -3.601775 -0.304475 -4.32525 -0.1171 -0.5439 0.140525 -1.254375 0.70005 -1.64995 0.60375 -0.37995 -0.091075 -0.348725 -0.3279 -0.353925 -0.7521 -0.0026 -0.244625 0.817175 -0.783325 0.817175 -0.783325l4.2966 -0.546525 0.595975 0.1978Z" fill="#615654" stroke-width="0.25"></path>
  <path d="M7.513525 22.560475c-0.257625 0.593375 1.504225 1.309025 2.383825 1.33505 1.97525 0.059875 3.0891 -1.108625 3.068275 -1.215325 -0.046825 -0.2134 -1.912775 -0.242025 -3.128125 -0.25765 -1.111225 -0.013 -2.232875 -0.07545 -2.323975 0.13795Z" fill="#615654" stroke-width="0.25"></path>
  <path d="M12.536225 16.184525c0.3175 0.1171 1.1737 -0.0911 1.96745 -0.48665 0.79375 -0.398175 1.210125 -0.668825 1.1919 -0.8484 -0.0182 -0.179575 -0.5413 -0.614175 -1.22835 -0.68705 -0.71825 -0.075475 -1.168475 0.031225 -1.33505 0.1978 -0.2342 0.2342 -1.13725 1.6265 -0.59595 1.8243Z" fill="#BFB3B3" stroke-width="0.25"></path>
  <path d="M10.438675 16.874175c-0.47625 0.06505 -0.231625 0.7443 0 1.106025 0.252425 0.395575 0.502275 0.661025 0.79635 0.713075 0.294075 0.05205 1.76445 0.07025 1.748825 -0.4164s-1.904975 -1.4886 -2.545175 -1.4027Z" fill="#4A4240" stroke-width="0.25"></path>
  <path d="M8.4374 17.045925c-0.26805 -0.088475 -0.8458 0.405975 -0.90825 0.603775 -0.06245 0.205575 0.37475 0.900425 1.043575 0.741675 0.47105 -0.1093 0.1015 -1.267375 -0.135325 -1.34545Z" fill="#4A4240" stroke-width="0.25"></path>
  <path d="M15.320825 7.94c0.015625 0.353925 -2.93815 5.07735 -3.286875 5.6473 -0.348725 0.569925 -1.1789 1.9336 -1.423525 2.1496 -0.299275 0.26805 -1.303825 0.546525 -1.8295 0.58555 -1.31425 0.1015 -1.96485 0.551725 -2.121 0.8666s1.01235 1.358475 1.85035 1.564075 2.62325 0.143125 2.95635 0.28365 0.994125 0.707875 1.514625 1.00975 1.23355 0.809375 1.21795 1.077425c-0.015625 0.26805 -0.130125 0.294075 -0.36435 0.2342 -0.27585 -0.07025 -1.43915 -0.421575 -2.1314 -0.50225 -1.256975 -0.14575 -3.1021 -0.2108 -4.156075 0.05985 -0.58035 0.148325 -1.63435 0.676625 -1.486 1.155475 0.132725 0.4242 0.351325 0.7443 0.663625 1.137275 0.27065 0.3409 0.791125 1.24915 1.12165 1.78525 0.3331 0.536125 0.9811 1.42095 2.2407 1.512025 1.467775 0.1067 2.0403 -0.627175 2.72215 -1.54585 0.679225 -0.91605 1.0748 -1.86595 2.0377 -1.75405 0.9629 0.111925 1.1685 1.31165 1.34285 2.16525 0.174375 0.8536 0.710475 3.16195 0.442425 3.69805 -0.26805 0.5361 -0.710475 0.58555 -1.5016 0.726075 -0.79115 0.14315 -4.3617 0.648 -6.5113 0.348725s-3.492475 -0.994125 -3.62 -1.715c-0.1275 -0.720875 0.174375 -1.02015 0.221225 -2.40985 0.046825 -1.3897 -0.1093 -7.867175 0.507475 -10.52425s1.65775 -4.10145 2.274525 -4.5907c0.616775 -0.48925 1.891975 -0.978525 2.167825 -0.830175 0.27585 0.14835 -1.1685 3.2088 -1.1685 3.2088s0.91345 -0.255025 0.99935 -0.468425c0.085875 -0.2134 2.443675 -5.314175 2.8913 -5.569225 0.447625 -0.255025 0.897825 -0.2108 1.428725 -0.04165 0.5335 0.179575 0.99935 0.7365 0.99935 0.7365Z" fill="#BFB3B3" stroke-width="0.25"></path>
  <path d="M8.38795 11.208675c-0.301875 -0.2004 -0.7443 0.1067 -0.934275 0.510075s-0.04165 0.7651 0.14835 0.851 0.569925 -0.002625 0.830175 -0.4034c0.2316 -0.364325 0.27325 -0.7469 -0.04425 -0.957675Z" fill="#D4CCCD" stroke-width="0.25"></path>
  <path d="M13.434075 7.057775c-0.923875 0.0052 -1.3793 0.47625 -1.86855 1.32205 -0.5335 0.92385 -0.668825 1.99865 -1.43395 3.16715s-1.571875 2.18865 -1.912775 2.50875c-0.340925 0.3201 -1.085225 1.23355 -0.595975 1.65775s1.1685 -0.234225 1.63695 -0.830175 1.44435 -2.40205 1.9336 -3.16715c0.48925 -0.765125 2.381225 -3.25305 2.698725 -3.8256 0.195175 -0.351325 0.05725 -0.835375 -0.458025 -0.832775Z" fill="#D4CCCD" stroke-width="0.25"></path>
  <path d="M8.088675 19.09405c-0.3201 -0.075475 -0.616775 -0.065075 -0.851 0.234225 -0.234225 0.296675 -0.281075 0.69485 0.041625 0.80675 0.4242 0.148325 0.7443 0 0.99935 -0.275875 0.197775 -0.210775 0.257625 -0.6584 -0.189975 -0.7651Z" fill="#D4CCCD" stroke-width="0.25"></path>
  <path d="M8.684625 27.955325c-0.59595 0.065075 -0.5309 0.851 -0.403375 1.1685s0.48925 0.510075 0.91345 0.38255 0.48925 -0.59595 0.36175 -0.9785 -0.3227 -0.6298 -0.871825 -0.57255Z" fill="#D4CCCD" stroke-width="0.25"></path>
  <path d="M19.2349 9.779925c-0.627175 0.020825 -0.8614 0.197775 -1.0748 0.608975 -0.239425 0.458025 0.018225 0.81455 0.4294 0.843175 0.502275 0.03645 0.824975 -0.1067 1.12945 -0.60895 0.2186 -0.35915 0.05465 -0.861425 -0.48405 -0.8432Z" fill="#D4CCCD" stroke-width="0.25"></path>
  <path d="M18.0508 11.661475c-0.286275 -0.026025 -0.4112 0.1067 -0.46585 0.3045 -0.05465 0.197775 0.0885 0.359125 0.286275 0.37735 0.197775 0.018225 0.359125 -0.1067 0.4294 -0.26805 0.072875 -0.16135 -0.05205 -0.395575 -0.249825 -0.4138Z" fill="#D4CCCD" stroke-width="0.25"></path>
  <path d="M9.56945 2.087125s0.619375 -0.59855 1.452175 -0.929075C12.1927 0.692225 13.121775 0.5725 13.121775 0.5725s0.6272 -0.06505 0.78855 0.132725c0.205575 0.24985 -0.16135 0.59075 -0.16135 0.59075s0.5387 -0.07285 0.681825 0.1978c0.14315 0.26805 0.03645 0.70005 -0.608975 0.718275 -0.6454 0.0182 -0.4476 -0.556925 -0.4476 -0.556925s-0.429425 0.216 -0.78855 0.304475c-0.359125 0.0885 -0.824975 -0.0182 -0.824975 -0.0182s-0.767725 1.217925 -1.66815 0.9681c-0.7443 -0.203 -0.5231 -0.822375 -0.5231 -0.822375Z" fill="#D4CCCD" stroke-width="0.25"></path>
  <path d="M8.72105 4.1899c0.221225 0.2108 0.658425 0.1119 0.89265 -0.24725 0.236825 -0.359125 0.2108 -0.731275 0 -0.892625s-0.608975 -0.036425 -0.830175 0.247225 -0.3253 0.645425 -0.062475 0.89265Z" fill="#D4CCCD" stroke-width="0.25"></path>
</svg>